<?xml version="1.0" encoding="utf-8"?>
<svg xmlns="http://www.w3.org/2000/svg" style="margin: auto; background: none; display: block; shape-rendering: auto;" width="264" height="161" preserveAspectRatio="xMidYMid">
<style type="text/css">
  text {
    text-anchor: middle; font-size: 70px; opacity: 0;
  }
</style>
<g style="transform-origin: 132px 80.5px; transform: scale(1.2963);">
<g transform="translate(132,80.5)">
  <g transform="translate(0,0)"><g class="path" style="transform: scale(0.91); transform-origin: -79.065px -3.9159px; animation: 2.85714s linear -1.65s infinite normal forwards running breath-23e0af49-9105-46ea-8f6d-d440c24bdb0c;"><path d="M25.05-9.89L25.05-8.75L25.05-8.75Q25.05-6.83 24.27-5.14L24.27-5.14L24.27-5.14Q23.49-3.45 22.19-2.19L22.19-2.19L22.19-2.19Q20.88-0.92 19.16-0.20L19.16-0.20L19.16-0.20Q17.43 0.53 15.50 0.53L15.50 0.53L12.79 0.53L12.79 0.53Q10.86 0.53 9.14-0.20L9.14-0.20L9.14-0.20Q7.41-0.92 6.10-2.19L6.10-2.19L6.10-2.19Q4.80-3.45 4.02-5.14L4.02-5.14L4.02-5.14Q3.24-6.83 3.24-8.75L3.24-8.75L3.24-10.26L6.64-10.81L6.64-8.75L6.64-8.75Q6.64-7.49 7.16-6.39L7.16-6.39L7.16-6.39Q7.67-5.30 8.54-4.47L8.54-4.47L8.54-4.47Q9.41-3.64 10.56-3.16L10.56-3.16L10.56-3.16Q11.71-2.69 12.97-2.69L12.97-2.69L15.35-2.69L15.35-2.69Q16.61-2.69 17.75-3.16L17.75-3.16L17.75-3.16Q18.88-3.64 19.75-4.47L19.75-4.47L19.75-4.47Q20.62-5.30 21.13-6.39L21.13-6.39L21.13-6.39Q21.65-7.49 21.65-8.75L21.65-8.75L21.65-9.89L21.65-9.89Q21.65-11.84 20.88-13.13L20.88-13.13L20.88-13.13Q20.12-14.42 18.85-15.33L18.85-15.33L18.85-15.33Q17.59-16.24 15.99-16.88L15.99-16.88L15.99-16.88Q14.40-17.51 12.71-18.14L12.71-18.14L12.71-18.14Q11.02-18.77 9.43-19.54L9.43-19.54L9.43-19.54Q7.83-20.30 6.57-21.45L6.57-21.45L6.57-21.45Q5.30-22.60 4.54-24.26L4.54-24.26L4.54-24.26Q3.77-25.92 3.77-28.34L3.77-28.34L3.77-29.06L3.77-29.06Q3.77-30.98 4.50-32.67L4.50-32.67L4.50-32.67Q5.22-34.36 6.49-35.62L6.49-35.62L6.49-35.62Q7.75-36.89 9.45-37.61L9.45-37.61L9.45-37.61Q11.15-38.34 13.08-38.34L13.08-38.34L15.50-38.34L15.50-38.34Q17.43-38.34 19.12-37.61L19.12-37.61L19.12-37.61Q20.80-36.89 22.07-35.62L22.07-35.62L22.07-35.62Q23.33-34.36 24.06-32.67L24.06-32.67L24.06-32.67Q24.79-30.98 24.79-29.06L24.79-29.06L24.79-28.08L21.38-27.53L21.38-29.06L21.38-29.06Q21.38-30.32 20.91-31.42L20.91-31.42L20.91-31.42Q20.43-32.51 19.62-33.33L19.62-33.33L19.62-33.33Q18.80-34.15 17.71-34.62L17.71-34.62L17.71-34.62Q16.61-35.09 15.35-35.09L15.35-35.09L13.24-35.09L13.24-35.09Q11.97-35.09 10.88-34.62L10.88-34.62L10.88-34.62Q9.78-34.15 8.95-33.33L8.95-33.33L8.95-33.33Q8.12-32.51 7.65-31.42L7.65-31.42L7.65-31.42Q7.17-30.32 7.17-29.06L7.17-29.06L7.17-28.34L7.17-28.34Q7.17-26.53 7.94-25.29L7.94-25.29L7.94-25.29Q8.70-24.05 9.97-23.16L9.97-23.16L9.97-23.16Q11.23-22.28 12.83-21.63L12.83-21.63L12.83-21.63Q14.42-20.99 16.11-20.32L16.11-20.32L16.11-20.32Q17.80-19.64 19.39-18.84L19.39-18.84L19.39-18.84Q20.99-18.04 22.25-16.86L22.25-16.86L22.25-16.86Q23.52-15.69 24.28-14.00L24.28-14.00L24.28-14.00Q25.05-12.31 25.05-9.89L25.05-9.89" fill="#ffffff" stroke="none" stroke-width="none" transform="translate(-93.20998811721802,14.989102239608766)" style="fill: rgb(255, 255, 255);"></path></g><g class="path" style="transform: scale(0.91); transform-origin: -52.655px -3.9159px; animation: 2.85714s linear -1.41429s infinite normal forwards running breath-23e0af49-9105-46ea-8f6d-d440c24bdb0c;"><path d="M49.04 0L46.54-8.81L34.57-8.81L32.09 0L28.56 0L39.63-37.81L41.42-37.81L52.55 0L49.04 0zM40.45-29.48L35.49-12.05L45.64-12.05L40.66-29.48L40.55-30.88L40.45-29.48" fill="#ffffff" stroke="none" stroke-width="none" transform="translate(-93.20998811721802,14.989102239608766)" style="fill: rgb(255, 255, 255);"></path></g><g class="path" style="transform: scale(0.91); transform-origin: -25.72px -0.025898px; animation: 2.85714s linear -1.17857s infinite normal forwards running breath-23e0af49-9105-46ea-8f6d-d440c24bdb0c;"><path d="M78.13-8.75L78.13-8.75L78.13-8.75Q78.13-6.91 77.47-5.27L77.47-5.27L77.47-5.27Q76.81-3.64 75.65-2.40L75.65-2.40L75.65-2.40Q74.49-1.16 72.92-0.38L72.92-0.38L72.92-0.38Q71.35 0.40 69.56 0.53L69.56 0.53L73.01 8.31L69.61 8.31L66.16 0.53L66.16 0.53Q64.23 0.53 62.53-0.20L62.53-0.20L62.53-0.20Q60.83-0.92 59.56-2.19L59.56-2.19L59.56-2.19Q58.30-3.45 57.57-5.14L57.57-5.14L57.57-5.14Q56.85-6.83 56.85-8.75L56.85-8.75L56.85-29.06L56.85-29.06Q56.85-30.98 57.57-32.67L57.57-32.67L57.57-32.67Q58.30-34.36 59.56-35.62L59.56-35.62L59.56-35.62Q60.83-36.89 62.53-37.61L62.53-37.61L62.53-37.61Q64.23-38.34 66.16-38.34L66.16-38.34L68.84-38.34L68.84-38.34Q70.77-38.34 72.46-37.61L72.46-37.61L72.46-37.61Q74.14-36.89 75.41-35.62L75.41-35.62L75.41-35.62Q76.68-34.36 77.40-32.67L77.40-32.67L77.40-32.67Q78.13-30.98 78.13-29.06L78.13-29.06L78.13-8.75zM74.72-8.75L74.72-29.06L74.72-29.06Q74.72-30.32 74.25-31.42L74.25-31.42L74.25-31.42Q73.78-32.51 72.96-33.33L72.96-33.33L72.96-33.33Q72.14-34.15 71.05-34.62L71.05-34.62L71.05-34.62Q69.95-35.09 68.69-35.09L68.69-35.09L66.31-35.09L66.31-35.09Q65.05-35.09 63.95-34.62L63.95-34.62L63.95-34.62Q62.86-34.15 62.03-33.33L62.03-33.33L62.03-33.33Q61.20-32.51 60.72-31.42L60.72-31.42L60.72-31.42Q60.25-30.32 60.25-29.06L60.25-29.06L60.25-8.75L60.25-8.75Q60.25-7.49 60.72-6.39L60.72-6.39L60.72-6.39Q61.20-5.30 62.03-4.47L62.03-4.47L62.03-4.47Q62.86-3.64 63.95-3.16L63.95-3.16L63.95-3.16Q65.05-2.69 66.31-2.69L66.31-2.69L68.69-2.69L68.69-2.69Q69.95-2.69 71.05-3.16L71.05-3.16L71.05-3.16Q72.14-3.64 72.96-4.47L72.96-4.47L72.96-4.47Q73.78-5.30 74.25-6.39L74.25-6.39L74.25-6.39Q74.72-7.49 74.72-8.75L74.72-8.75" fill="#ffffff" stroke="none" stroke-width="none" transform="translate(-93.20998811721802,14.989102239608766)" style="fill: rgb(255, 255, 255);"></path></g><g class="path" style="transform: scale(0.91); transform-origin: -5.25999px -3.9159px; animation: 2.85714s linear -0.942857s infinite normal forwards running breath-23e0af49-9105-46ea-8f6d-d440c24bdb0c;"><path d="M89.65 0L86.25 0L86.25-37.81L89.65-37.81L89.65 0" fill="#ffffff" stroke="none" stroke-width="none" transform="translate(-93.20998811721802,14.989102239608766)" style="fill: rgb(255, 255, 255);"></path></g><g class="path" style="transform: scale(0.91); transform-origin: 15.73px -3.9159px; animation: 2.85714s linear -0.707143s infinite normal forwards running breath-23e0af49-9105-46ea-8f6d-d440c24bdb0c;"><path d="M119.58-9.28L119.58-9.28L119.58-9.28Q119.58-7.36 118.85-5.67L118.85-5.67L118.85-5.67Q118.13-3.98 116.86-2.72L116.86-2.72L116.86-2.72Q115.59-1.45 113.89-0.73L113.89-0.73L113.89-0.73Q112.19 0 110.27 0L110.27 0L98.30 0L98.30-37.81L110.27-37.81L110.27-37.81Q112.19-37.81 113.89-37.09L113.89-37.09L113.89-37.09Q115.59-36.36 116.86-35.09L116.86-35.09L116.86-35.09Q118.13-33.83 118.85-32.13L118.85-32.13L118.85-32.13Q119.58-30.43 119.58-28.50L119.58-28.50L119.58-28.13L119.58-28.13Q119.58-26.79 119.22-25.56L119.22-25.56L119.22-25.56Q118.86-24.34 118.20-23.28L118.20-23.28L118.20-23.28Q117.54-22.23 116.65-21.37L116.65-21.37L116.65-21.37Q115.75-20.51 114.64-19.93L114.64-19.93L114.64-19.93Q115.75-19.35 116.65-18.50L116.65-18.50L116.65-18.50Q117.54-17.64 118.20-16.57L118.20-16.57L118.20-16.57Q118.86-15.50 119.22-14.28L119.22-14.28L119.22-14.28Q119.58-13.05 119.58-11.71L119.58-11.71L119.58-9.28zM116.17-9.28L116.17-12.26L116.17-12.26Q116.17-13.53 115.70-14.62L115.70-14.62L115.70-14.62Q115.22-15.71 114.39-16.53L114.39-16.53L114.39-16.53Q113.56-17.35 112.47-17.82L112.47-17.82L112.47-17.82Q111.38-18.30 110.11-18.30L110.11-18.30L101.70-18.30L101.70-3.24L110.11-3.24L110.11-3.24Q111.38-3.24 112.47-3.72L112.47-3.72L112.47-3.72Q113.56-4.19 114.39-5.01L114.39-5.01L114.39-5.01Q115.22-5.83 115.70-6.92L115.70-6.92L115.70-6.92Q116.17-8.02 116.17-9.28L116.17-9.28zM116.17-27.61L116.17-28.50L116.17-28.50Q116.17-29.77 115.70-30.86L115.70-30.86L115.70-30.86Q115.22-31.96 114.39-32.79L114.39-32.79L114.39-32.79Q113.56-33.62 112.47-34.09L112.47-34.09L112.47-34.09Q111.38-34.57 110.11-34.57L110.11-34.57L101.70-34.57L101.70-21.54L110.11-21.54L110.11-21.54Q111.38-21.54 112.47-22.02L112.47-22.02L112.47-22.02Q113.56-22.49 114.39-23.32L114.39-23.32L114.39-23.32Q115.22-24.15 115.70-25.25L115.70-25.25L115.70-25.25Q116.17-26.34 116.17-27.61L116.17-27.61" fill="#ffffff" stroke="none" stroke-width="none" transform="translate(-93.20998811721802,14.989102239608766)" style="fill: rgb(255, 255, 255);"></path></g><g class="path" style="transform: scale(0.91); transform-origin: 53.47px -3.9159px; animation: 2.85714s linear -0.471429s infinite normal forwards running breath-23e0af49-9105-46ea-8f6d-d440c24bdb0c;"><path d="M155.17 0L152.67-8.81L140.70-8.81L138.22 0L134.68 0L145.76-37.81L147.55-37.81L158.68 0L155.17 0zM146.58-29.48L141.62-12.05L151.77-12.05L146.79-29.48L146.68-30.88L146.58-29.48" fill="#ffffff" stroke="none" stroke-width="none" transform="translate(-93.20998811721802,14.989102239608766)" style="fill: rgb(255, 255, 255);"></path></g><g class="path" style="transform: scale(0.91); transform-origin: 78.705px -3.9159px; animation: 2.85714s linear -0.235714s infinite normal forwards running breath-23e0af49-9105-46ea-8f6d-d440c24bdb0c;"><path d="M180.85 0L162.98 0L162.98-37.81L166.38-37.81L166.38-3.24L180.85-3.24L180.85 0" fill="#ffffff" stroke="none" stroke-width="none" transform="translate(-93.20998811721802,14.989102239608766)" style="fill: rgb(255, 255, 255);"></path></g><g class="path" style="transform: scale(0.91); transform-origin: 94.75px -3.9159px; animation: 2.85714s linear 0s infinite normal forwards running breath-23e0af49-9105-46ea-8f6d-d440c24bdb0c;"><path d="M189.66 0L186.26 0L186.26-37.81L189.66-37.81L189.66 0" fill="#ffffff" stroke="none" stroke-width="none" transform="translate(-93.20998811721802,14.989102239608766)" style="fill: rgb(255, 255, 255);"></path></g></g>
</g>
</g>
<style id="breath-23e0af49-9105-46ea-8f6d-d440c24bdb0c" data-anikit="">@keyframes breath-23e0af49-9105-46ea-8f6d-d440c24bdb0c
{
  0% {
    animation-timing-function: cubic-bezier(0.9647,0.2413,-0.0705,0.7911);
    transform: scale(0.9099999999999999);
  }
  51% {
    animation-timing-function: cubic-bezier(0.9226,0.2631,-0.0308,0.7628);
    transform: scale(1.02994);
  }
  100% {
    transform: scale(0.9099999999999999);
  }
}</style></svg>